<svg width="519" height="139" viewBox="0 0 519 139" fill="none" xmlns="http://www.w3.org/2000/svg">
<path fill-rule="evenodd" clip-rule="evenodd" d="M80.4067 40.8368L76.0978 45.2044C75.581 45.7275 74.8805 46.0214 74.15 46.0214C73.4196 46.0214 72.7191 45.7275 72.2023 45.2044L67.8934 40.8368C63.9801 36.8703 58.6725 34.6419 53.1382 34.6419C47.604 34.6419 42.2964 36.8703 38.3831 40.8368C34.4698 44.8033 32.2713 50.1831 32.2713 55.7927C32.2713 61.4022 34.4698 66.782 38.3831 70.7486L74.15 107.007L109.917 70.7532C113.83 66.7867 116.029 61.4069 116.029 55.7973C116.029 50.1878 113.83 44.808 109.917 40.8415C106.004 36.8749 100.696 34.6465 95.1619 34.6465C89.6276 34.6465 84.32 36.8749 80.4067 40.8415V40.8368ZM62.6243 75.917L52.8626 67.6708C52.5521 67.4086 52.3023 67.0804 52.1308 66.7094C51.9594 66.3385 51.8705 65.9339 51.8705 65.5242C51.8705 65.1146 51.9594 64.71 52.1308 64.339C52.3023 63.9681 52.5521 63.6399 52.8626 63.3777L62.6243 55.1361C62.902 54.8979 63.2234 54.7177 63.5702 54.606C63.9169 54.4942 64.282 54.4532 64.6444 54.4852C65.0068 54.5172 65.3594 54.6216 65.6819 54.7924C66.0043 54.9632 66.2902 55.197 66.523 55.4803C66.7559 55.7637 66.9311 56.0909 67.0385 56.4432C67.146 56.7955 67.1836 57.1659 67.1491 57.533C67.1146 57.9001 67.0088 58.2567 66.8377 58.5821C66.6667 58.9076 66.4337 59.1955 66.1523 59.4292L58.931 65.5289L66.1523 71.6286C66.4337 71.8623 66.6667 72.1502 66.8377 72.4757C67.0088 72.8011 67.1146 73.1577 67.1491 73.5248C67.1836 73.8919 67.146 74.2623 67.0385 74.6146C66.9311 74.9669 66.7559 75.2941 66.523 75.5775C66.2902 75.8608 66.0043 76.0946 65.6819 76.2654C65.3594 76.4362 65.0068 76.5406 64.6444 76.5726C64.282 76.6046 63.9169 76.5636 63.5702 76.4518C63.2234 76.3401 62.902 76.1599 62.6243 75.9217V75.917ZM71.8118 78.9296C71.5401 79.6181 71.0097 80.1689 70.3374 80.461C69.665 80.7531 68.9056 80.7625 68.2264 80.4871C67.5472 80.2117 67.0037 79.6741 66.7155 78.9926C66.4274 78.311 66.4181 77.5414 66.6898 76.8529L76.4515 52.1142C76.7232 51.4258 77.2536 50.8749 77.926 50.5828C78.5984 50.2907 79.3577 50.2813 80.0369 50.5567C80.7162 50.8321 81.2596 51.3697 81.5478 52.0513C81.836 52.7328 81.8452 53.5025 81.5735 54.1909L71.8118 78.9296ZM95.4191 67.6708L85.6574 75.917C85.3797 76.1553 85.0583 76.3355 84.7116 76.4472C84.3648 76.5589 83.9997 76.6 83.6373 76.568C83.2749 76.536 82.9223 76.4316 82.5998 76.2608C82.2774 76.09 81.9915 75.8562 81.7587 75.5728C81.5258 75.2895 81.3506 74.9622 81.2432 74.6099C81.1357 74.2576 81.0981 73.8872 81.1326 73.5201C81.1671 73.153 81.2729 72.7965 81.444 72.471C81.615 72.1456 81.848 71.8577 82.1294 71.6239L89.3508 65.5242L82.1294 59.4246C81.8516 59.1885 81.6224 58.8994 81.4548 58.5735C81.2873 58.2477 81.1847 57.8916 81.1529 57.5256C81.1211 57.1596 81.1608 56.7909 81.2696 56.4404C81.3784 56.0899 81.5543 55.7646 81.7872 55.483C82.02 55.2015 82.3053 54.9691 82.6268 54.7993C82.9482 54.6295 83.2995 54.5255 83.6606 54.4933C84.0217 54.4611 84.3855 54.5013 84.7313 54.6116C85.077 54.7219 85.398 54.9001 85.6758 55.1361L95.4375 63.3824C95.748 63.6446 95.9978 63.9727 96.1693 64.3437C96.3407 64.7146 96.4296 65.1193 96.4296 65.5289C96.4296 65.9385 96.3407 66.3432 96.1693 66.7141C95.9978 67.0851 95.748 67.4132 95.4375 67.6754L95.4191 67.6708Z" fill="#E31B23"/>
<path fill-rule="evenodd" clip-rule="evenodd" d="M128.173 1.12366H20.1275C16.6682 1.12612 13.3513 2.52013 10.9051 4.99953C8.45903 7.47893 7.08373 10.841 7.0813 14.3474V123.862C7.08373 127.369 8.45903 130.731 10.9051 133.21C13.3513 135.69 16.6682 137.084 20.1275 137.086H128.173C131.632 137.084 134.949 135.69 137.395 133.21C139.841 130.731 141.216 127.369 141.219 123.862V14.3474C141.216 10.841 139.841 7.47893 137.395 4.99953C134.949 2.52013 131.632 1.12612 128.173 1.12366ZM113.817 74.6924L76.0978 112.925C75.581 113.448 74.8805 113.742 74.1501 113.742C73.4196 113.742 72.7191 113.448 72.2023 112.925L34.483 74.6924C29.536 69.678 26.7567 62.8771 26.7567 55.7857C26.7567 48.6943 29.536 41.8934 34.483 36.879C39.4301 31.8646 46.1397 29.0476 53.1359 29.0476C60.1321 29.0476 66.8418 31.8646 71.7889 36.879L74.1501 39.2816L76.5112 36.8883C81.4741 31.9573 88.1563 29.2108 95.1058 29.2455C102.055 29.2802 108.71 32.0933 113.625 37.0737C118.54 42.054 121.317 48.799 121.353 55.843C121.389 62.887 118.681 69.6608 113.817 74.6924Z" fill="black"/>
<path d="M154.975 90.7049V86.2849H181.155C184.385 86.2849 186 84.6983 186 81.5249V74.8099C186 72.0333 184.781 70.4183 182.345 69.9649L164.58 66.3099C158.176 65.0633 154.975 60.7849 154.975 53.4749V48.8849C154.975 39.9316 159.423 35.4549 168.32 35.4549H188.55L192.885 38.8549V43.2749H168.405C165.175 43.2749 163.56 44.8616 163.56 48.0349V53.8149C163.56 56.5916 164.778 58.2066 167.215 58.6599L185.065 62.1449C191.411 63.5049 194.585 67.8116 194.585 75.0649V80.6749C194.585 89.6283 190.136 94.1049 181.24 94.1049H159.31L154.975 90.7049ZM202.067 81.0149V62.7399C202.067 54.0699 206.402 49.7349 215.072 49.7349H226.122C234.792 49.7349 239.127 54.0699 239.127 62.7399V74.9799H210.312V81.8649C210.312 85.2083 211.984 86.8799 215.327 86.8799H237.427V91.2149L233.602 94.1049H215.072C206.402 94.1049 202.067 89.7416 202.067 81.0149ZM210.312 68.5199H230.882V61.8899C230.882 58.6033 229.239 56.9599 225.952 56.9599H215.327C211.984 56.9599 210.312 58.6033 210.312 61.8899V68.5199ZM247.982 81.0149V35.4549H256.227V49.7349H271.952V56.9599H256.227V81.8649C256.227 85.2083 257.899 86.8799 261.242 86.8799H272.802V91.2149L268.892 94.1049H260.987C252.317 94.1049 247.982 89.7416 247.982 81.0149ZM278.781 81.0149V49.7349H287.026V81.8649C287.026 85.2083 288.698 86.8799 292.041 86.8799H307.596V49.7349H315.841V94.1049H291.786C283.116 94.1049 278.781 89.7416 278.781 81.0149ZM325.692 111.105V49.7349H349.747C358.417 49.7349 362.752 54.0699 362.752 62.7399V81.0149C362.752 89.7416 358.417 94.1049 349.747 94.1049H333.937V111.105H325.692ZM333.937 86.8799H349.577C352.864 86.8799 354.507 85.2083 354.507 81.8649V61.8899C354.507 58.6033 352.864 56.9599 349.577 56.9599H333.937V86.8799Z" fill="black"/>
<path d="M372.781 94.1049V35.4549H381.366V59.5949H408.906V35.4549H417.491V94.1049H408.906V67.4149H381.366V94.1049H372.781ZM427.873 81.0149V49.7349H436.118V81.8649C436.118 85.2083 437.79 86.8799 441.133 86.8799H456.688V49.7349H464.933V94.1049H440.878C432.208 94.1049 427.873 89.7416 427.873 81.0149ZM474.784 94.1049V31.2049H483.029V49.7349H498.839C507.509 49.7349 511.844 54.0699 511.844 62.7399V81.0149C511.844 89.7416 507.509 94.1049 498.839 94.1049H474.784ZM483.029 86.8799H498.669C501.956 86.8799 503.599 85.2083 503.599 81.8649V61.8899C503.599 58.6033 501.956 56.9599 498.669 56.9599H483.029V86.8799Z" fill="black"/>
</svg>
