<svg width="135" height="136" viewBox="0 0 135 136" fill="none" xmlns="http://www.w3.org/2000/svg">
<path fill-rule="evenodd" clip-rule="evenodd" d="M73.3254 39.7132L69.0165 44.0807C68.4997 44.6039 67.7992 44.8978 67.0687 44.8978C66.3383 44.8978 65.6378 44.6039 65.121 44.0807L60.8121 39.7132C56.8988 35.7466 51.5912 33.5182 46.0569 33.5182C40.5227 33.5182 35.2151 35.7466 31.3018 39.7132C27.3885 43.6797 25.19 49.0595 25.19 54.669C25.19 60.2786 27.3885 65.6584 31.3018 69.6249L67.0687 105.883L102.836 69.6296C106.749 65.663 108.947 60.2832 108.947 54.6737C108.947 49.0641 106.749 43.6844 102.836 39.7178C98.9224 35.7513 93.6148 33.5229 88.0806 33.5229C82.5463 33.5229 77.2387 35.7513 73.3254 39.7178V39.7132ZM55.543 74.7933L45.7813 66.5471C45.4708 66.2849 45.221 65.9567 45.0495 65.5858C44.8781 65.2149 44.7892 64.8102 44.7892 64.4006C44.7892 63.991 44.8781 63.5863 45.0495 63.2154C45.221 62.8444 45.4708 62.5163 45.7813 62.2541L55.543 54.0125C55.8207 53.7742 56.1421 53.594 56.4889 53.4823C56.8356 53.3706 57.2007 53.3295 57.5631 53.3615C57.9255 53.3935 58.2781 53.4979 58.6006 53.6687C58.923 53.8395 59.2089 54.0733 59.4417 54.3567C59.6746 54.64 59.8498 54.9673 59.9572 55.3196C60.0647 55.6719 60.1023 56.0423 60.0678 56.4094C60.0333 56.7765 59.9275 57.133 59.7564 57.4585C59.5854 57.7839 59.3524 58.0718 59.071 58.3056L51.8497 64.4053L59.071 70.5049C59.3524 70.7387 59.5854 71.0266 59.7564 71.352C59.9275 71.6775 60.0333 72.034 60.0678 72.4011C60.1023 72.7682 60.0647 73.1386 59.9572 73.4909C59.8498 73.8432 59.6746 74.1705 59.4417 74.4538C59.2089 74.7372 58.923 74.971 58.6006 75.1418C58.2781 75.3126 57.9255 75.417 57.5631 75.449C57.2007 75.481 56.8356 75.4399 56.4889 75.3282C56.1421 75.2165 55.8207 75.0363 55.543 74.798V74.7933ZM64.7305 77.8059C64.4588 78.4944 63.9285 79.0453 63.2561 79.3374C62.5837 79.6295 61.8243 79.6388 61.1451 79.3635C60.4659 79.0881 59.9224 78.5505 59.6342 77.8689C59.3461 77.1874 59.3368 76.4177 59.6085 75.7292L69.3702 50.9906C69.6419 50.3021 70.1723 49.7513 70.8447 49.4592C71.5171 49.1671 72.2764 49.1577 72.9556 49.4331C73.6349 49.7085 74.1783 50.2461 74.4665 50.9276C74.7547 51.6092 74.7639 52.3788 74.4922 53.0673L64.7305 77.8059ZM88.3378 66.5471L78.5761 74.7933C78.2984 75.0316 77.977 75.2118 77.6303 75.3235C77.2835 75.4353 76.9184 75.4763 76.556 75.4443C76.1936 75.4123 75.841 75.3079 75.5185 75.1371C75.1961 74.9663 74.9102 74.7325 74.6774 74.4492C74.4445 74.1658 74.2693 73.8386 74.1619 73.4863C74.0544 73.1339 74.0168 72.7636 74.0513 72.3965C74.0858 72.0294 74.1916 71.6728 74.3627 71.3474C74.5337 71.0219 74.7667 70.734 75.0481 70.5003L82.2695 64.4006L75.0481 58.3009C74.7703 58.0649 74.5411 57.7757 74.3735 57.4499C74.206 57.1241 74.1034 56.768 74.0716 56.402C74.0398 56.036 74.0795 55.6672 74.1883 55.3168C74.2971 54.9663 74.473 54.641 74.7059 54.3594C74.9387 54.0778 75.224 53.8455 75.5455 53.6757C75.8669 53.5058 76.2182 53.4018 76.5793 53.3696C76.9404 53.3374 77.3042 53.3776 77.65 53.4879C77.9957 53.5982 78.3167 53.7765 78.5945 54.0125L88.3562 62.2587C88.6667 62.5209 88.9165 62.8491 89.088 63.22C89.2594 63.591 89.3483 63.9956 89.3483 64.4053C89.3483 64.8149 89.2594 65.2195 89.088 65.5905C88.9165 65.9614 88.6667 66.2896 88.3562 66.5518L88.3378 66.5471Z" fill="#E31B23"/>
<path fill-rule="evenodd" clip-rule="evenodd" d="M121.091 0H13.0462C9.58692 0.00246669 6.26997 1.39647 3.82385 3.87587C1.37773 6.35527 0.00243358 9.71735 0 13.2237V122.739C0.00243358 126.245 1.37773 129.607 3.82385 132.087C6.26997 134.566 9.58692 135.96 13.0462 135.963H121.091C124.551 135.96 127.868 134.566 130.314 132.087C132.76 129.607 134.135 126.245 134.138 122.739V13.2237C134.135 9.71735 132.76 6.35527 130.314 3.87587C127.868 1.39647 124.551 0.00246669 121.091 0ZM106.736 73.5688L69.0165 111.801C68.4997 112.324 67.7992 112.618 67.0688 112.618C66.3383 112.618 65.6378 112.324 65.121 111.801L27.4017 73.5688C22.4547 68.5544 19.6754 61.7534 19.6754 54.662C19.6754 47.5707 22.4547 40.7697 27.4017 35.7553C32.3488 30.741 39.0584 27.9239 46.0546 27.9239C53.0508 27.9239 59.7605 30.741 64.7076 35.7553L67.0688 38.158L69.4299 35.7647C74.3928 30.8337 81.075 28.0871 88.0245 28.1218C94.9739 28.1565 101.629 30.9697 106.544 35.95C111.458 40.9303 114.236 47.6754 114.271 54.7194C114.307 61.7634 111.599 68.5372 106.736 73.5688Z" fill="white"/>
</svg>
