<svg xmlns="http://www.w3.org/2000/svg" version="1.1" xmlns:xlink="http://www.w3.org/1999/xlink" width="424" height="367"><svg width="424" height="367" viewBox="0 0 424 367" fill="none" xmlns="http://www.w3.org/2000/svg">
<path fill-rule="evenodd" clip-rule="evenodd" d="M243.594 31.35L221.788 53.4525C219.173 56.1001 215.628 57.5873 211.931 57.5873C208.235 57.5873 204.69 56.1001 202.075 53.4525L180.269 31.35C160.465 11.2769 133.606 -2.11504e-07 105.599 0C77.5924 2.11504e-07 50.7329 11.2769 30.9292 31.35C11.1256 51.4231 2.08665e-07 78.6481 0 107.036C-2.08665e-07 135.423 11.1256 162.648 30.9292 182.721L211.931 366.21L392.934 182.745C412.737 162.672 423.863 135.447 423.863 107.059C423.863 78.6717 412.737 51.4467 392.934 31.3736C373.13 11.3005 346.27 0.0235734 318.264 0.0235729C290.257 0.0235725 263.398 11.3005 243.594 31.3736V31.35ZM153.604 208.877L104.204 167.146C102.633 165.819 101.369 164.158 100.501 162.281C99.6333 160.404 99.1835 158.356 99.1835 156.283C99.1835 154.21 99.6333 152.163 100.501 150.285C101.369 148.408 102.633 146.747 104.204 145.421L153.604 103.713C155.01 102.508 156.636 101.596 158.391 101.03C160.145 100.465 161.993 100.257 163.827 100.419C165.661 100.581 167.446 101.109 169.077 101.974C170.709 102.838 172.156 104.021 173.334 105.455C174.513 106.889 175.399 108.545 175.943 110.328C176.487 112.111 176.677 113.985 176.502 115.843C176.328 117.701 175.793 119.505 174.927 121.152C174.061 122.799 172.882 124.256 171.458 125.439L134.914 156.307L171.458 187.175C172.882 188.358 174.061 189.815 174.927 191.462C175.793 193.109 176.328 194.913 176.502 196.771C176.677 198.628 176.487 200.503 175.943 202.286C175.399 204.069 174.513 205.725 173.334 207.159C172.156 208.593 170.709 209.776 169.077 210.64C167.446 211.504 165.661 212.033 163.827 212.195C161.993 212.357 160.145 212.149 158.391 211.584C156.636 211.018 155.01 210.106 153.604 208.9V208.877ZM200.099 224.122C198.724 227.606 196.04 230.394 192.637 231.872C189.234 233.35 185.392 233.398 181.954 232.004C178.517 230.611 175.767 227.89 174.308 224.441C172.85 220.992 172.803 217.097 174.178 213.613L223.578 88.4206C224.953 84.9366 227.637 82.1489 231.04 80.6707C234.443 79.1926 238.285 79.1451 241.723 80.5387C245.16 81.9323 247.91 84.6529 249.369 88.1019C250.827 91.5509 250.874 95.4459 249.499 98.9299L200.099 224.122ZM319.566 167.146L270.165 208.877C268.76 210.083 267.134 210.995 265.379 211.56C263.624 212.125 261.777 212.333 259.943 212.171C258.108 212.009 256.324 211.481 254.692 210.617C253.061 209.752 251.614 208.569 250.436 207.135C249.257 205.701 248.371 204.045 247.827 202.262C247.283 200.479 247.093 198.605 247.267 196.747C247.442 194.889 247.977 193.085 248.843 191.438C249.709 189.791 250.888 188.334 252.312 187.151L288.856 156.283L252.312 125.415C250.906 124.221 249.746 122.757 248.898 121.109C248.05 119.46 247.531 117.658 247.37 115.806C247.209 113.953 247.41 112.087 247.961 110.314C248.511 108.54 249.401 106.894 250.58 105.469C251.758 104.044 253.202 102.868 254.829 102.009C256.455 101.149 258.233 100.623 260.06 100.46C261.888 100.297 263.729 100.5 265.479 101.059C267.228 101.617 268.853 102.519 270.258 103.713L319.659 145.444C321.23 146.771 322.494 148.432 323.362 150.309C324.23 152.186 324.679 154.234 324.679 156.307C324.679 158.38 324.23 160.428 323.362 162.305C322.494 164.182 321.23 165.843 319.659 167.17L319.566 167.146Z" fill="#E31B23"></path>
</svg><style>@media (prefers-color-scheme: light) { :root { filter: none; } }
@media (prefers-color-scheme: dark) { :root { filter: none; } }
</style></svg>